<svg width="286" height="160" viewBox="0 0 286 160" fill="none" xmlns="http://www.w3.org/2000/svg">
<g clip-path="url(#clip0_6_545)">
<mask id="mask0_6_545" style="mask-type:alpha" maskUnits="userSpaceOnUse" x="0" y="17" width="285" height="125">
<rect y="17.0518" width="284.934" height="124.058" fill="url(#paint0_linear_6_545)"/>
</mask>
<g mask="url(#mask0_6_545)">
<path d="M249.222 33.345L233.117 27.9651L166.791 28.1726L155.31 24.0481L145.595 28.0837L104.084 27.97L87.635 20.4277H63.7184L60.0189 27.9675H39.174L0 90.3523L43.6074 139.575H241.42L285.028 90.3523L249.219 33.3425L249.222 33.345ZM240.414 137.344H44.6132L2.78261 90.125L40.4121 30.1991H61.4152L65.1121 22.6592H87.1482L103.592 30.1991L146.038 30.3152L155.367 26.4378L166.403 30.4042L232.756 30.1966L247.754 35.2059L282.245 90.12L240.414 137.339V137.344Z" fill="url(#paint1_linear_6_545)"/>
</g>
<path d="M282.247 90.1247L240.414 137.341H44.6132L2.78256 90.1247L40.4121 30.1988H61.4151L65.1121 22.659H87.1481L103.594 30.1988L146.038 30.3175L155.367 26.44L166.403 30.4064L232.756 30.1988L247.754 35.2106L282.247 90.1247Z" fill="url(#paint2_linear_6_545)"/>
<path d="M282.242 90.1247L247.756 35.2106L232.753 30.2013L166.405 30.4039L155.369 26.4375L146.035 30.315L103.591 30.2013L87.1475 22.6614H65.114L61.417 30.2013H40.4164L2.78445 90.1247H27.9491L46.9158 104.223H77.6333L82.2323 90.1247H102.158L106.737 70.1766H111.282L117.42 67.5027L116.133 81.0403L133.105 90.1247H282.242Z" fill="#4A357D"/>
<path d="M16.1099 82.7579H37.5479L41.2325 75.6901H31.7257L38.4524 63.8972L49.4741 59.8838L52.9561 53.2114L42.4657 56.8614L48.0482 47.0727L44.759 42.103H50.8852H58.7486L61.1136 37.5682H44.4896L16.1099 82.7579Z" fill="white"/>
<path d="M69.7086 30.0257L57.2634 55.4205L72.3528 64.3764L78.2739 67.4358L69.3132 72.3017L62.9893 88.7826H52.8399L63.6936 63.6918L55.5855 58.8432L40.2564 90.1171L49.3481 96.8563H72.2885L83.6538 62.0015L68.122 53.4533L76.4822 34.128H83.9553L89.0411 36.2657L81.8473 39.6241L76.9369 52.4278L85.307 56.9255L92.958 33.4608L85.5294 30.0257H69.7086Z" fill="white"/>
<path d="M97.6854 37.5678L84.7065 82.7575H96.2892L100.871 62.8094H109.748L120.774 58.0077L122.818 41.4156L114.307 37.5678H97.6829H97.6854ZM112.57 47.2033L110.79 57.0513H102.195L105.628 42.1001H113.491L119.294 44.4602L112.57 47.2008V47.2033Z" fill="white"/>
<path d="M127.667 37.5678L123.93 76.8585L134.952 82.7575H156.39L153.54 41.4156L144.293 37.5678H127.669H127.667ZM144.449 51.4712L144.726 75.6872H135.219L136.482 42.1001H144.345L150.387 44.4602L144.451 51.4712H144.449Z" fill="white"/>
<path d="M159.879 41.4329L164.364 82.7575H175.947L172.633 62.8094H181.51L185.8 82.7575H197.385L192.188 63.6916L185.37 60.8052L190.639 58.0077L185.066 37.5678H168.442L159.879 41.4329V41.4329ZM180.274 57.0513H171.679L170.053 47.2552L163.346 44.4627L169.196 42.1026H177.059L180.274 57.0538V57.0513Z" fill="white"/>
<path d="M189.363 42.1026H197.106L210.922 82.7575H222.508L208.303 47.013L200.19 42.0482H213.95L211.958 37.5678H188.041L189.363 42.1026Z" fill="white"/>
<path d="M252.696 56.9253L242.922 41.3637L231.555 37.5678H214.931L223.214 55.4203L246.847 64.3762L253.302 75.6896H243.792L237.538 63.6916L224.801 58.843L233.159 76.8585L247.479 82.7575H268.917L255.882 62.0013L232.197 53.4531L228.878 47.0871L220.157 42.1026H234.142L240.031 52.4276L252.696 56.9253Z" fill="white"/>
<path d="M155.756 32.1531C154.543 33.3369 153.169 34.4341 151.659 35.43C153.31 36.4358 154.879 37.5825 156.344 38.8503C157.587 37.5825 158.956 36.4358 160.429 35.43C158.744 34.4341 157.177 33.3369 155.756 32.1531Z" fill="#E2D45C"/>
<path d="M29.1733 77.1725L36.1299 64.9743C33.5499 65.2684 30.9922 65.5699 28.4567 65.8837L18.7917 81.2748H36.6488L38.7864 77.1725H29.1733V77.1725Z" fill="url(#paint3_linear_6_545)"/>
<path d="M79.0503 61.1608C76.2875 61.3412 73.5419 61.534 70.8137 61.7391L73.0724 63.0785L80.4935 66.9115L81.8626 62.7078L79.0503 61.1608V61.1608ZM70.4998 73.3417L64.0104 90.265H50.5841L61.8184 64.2969L59.1148 62.6807C57.8002 62.7943 56.4879 62.9105 55.1831 63.0316L42.1325 89.6595L49.8378 95.3731H71.2116L80.0932 68.1348L70.4998 73.3417V73.3417Z" fill="url(#paint4_linear_6_545)"/>
<path d="M113.71 59.4681L109.442 61.3265H99.6931L95.1115 81.2746H86.6771L92.6847 60.3553C99.5992 59.992 106.61 59.6954 113.71 59.4681Z" fill="url(#paint5_linear_6_545)"/>
<path d="M154.801 81.2748H135.325L125.499 76.0184L127.108 59.1174C129.518 59.0679 131.935 59.0284 134.361 58.9963L133.679 77.1725H146.226L146.018 58.8999C147.128 58.8974 148.24 58.895 149.354 58.895C150.659 58.895 151.961 58.8974 153.259 58.9024L154.801 81.2748V81.2748Z" fill="url(#paint6_linear_6_545)"/>
<path d="M195.445 81.2746H186.999L182.709 61.3265H170.884L174.198 81.2746H165.694L163.275 58.9813C170.511 59.0702 177.67 59.2309 184.743 59.4582L181.923 60.9558L190.948 64.7764L195.445 81.2746V81.2746Z" fill="url(#paint7_linear_6_545)"/>
<path d="M212.144 60.6938C209.727 60.5529 207.298 60.4195 204.857 60.2959L211.986 81.2745H220.324L212.144 60.6938Z" fill="url(#paint8_linear_6_545)"/>
<path d="M255.517 64.2058C253.038 63.9463 250.542 63.6943 248.027 63.4521L255.855 77.1726H242.894L236.483 64.878L228.321 61.7692C228.138 61.7543 227.958 61.742 227.775 61.7296L234.262 75.7096L247.772 81.2749H266.237L255.517 64.2058V64.2058Z" fill="url(#paint9_linear_6_545)"/>
<path fill-rule="evenodd" clip-rule="evenodd" d="M118.121 116.011V112.962L109.696 116.095H109.679V119.224H109.696L118.121 122.358V119.303L113.803 117.652L118.121 116.011V116.011Z" fill="#996DFF"/>
<path fill-rule="evenodd" clip-rule="evenodd" d="M166.918 122.2V119.15L171.233 117.509L166.918 115.868V112.819L175.33 115.95H175.35V119.081H175.33L166.918 122.197V122.2ZM163.305 108.511L158.358 124.392H161.296L166.243 108.511H163.305Z" fill="#996DFF"/>
<path fill-rule="evenodd" clip-rule="evenodd" d="M130.5 112.386C131.335 113.305 131.775 114.516 131.723 115.757V122.521H128.784V116.377C128.819 115.693 128.599 115.02 128.172 114.487C127.764 114.012 127.161 113.75 126.536 113.777C124.697 113.777 123.775 115.053 123.775 117.605V122.523H120.837V111.417H123.775V112.421C124.707 111.514 125.972 111.032 127.272 111.086C128.483 111.034 129.659 111.509 130.497 112.386H130.5Z" fill="white"/>
<path fill-rule="evenodd" clip-rule="evenodd" d="M135.462 106.799V122.679H138.4V106.799H135.462Z" fill="white"/>
<path fill-rule="evenodd" clip-rule="evenodd" d="M155.001 122.098H152.55L150.148 115.557L147.723 122.098H145.277L141.16 110.972H144.298L146.611 117.625L148.996 110.972H151.287L153.672 117.647L155.985 110.972H159.123L155.001 122.098V122.098Z" fill="white"/>
<path d="M11.9785 25.9288C15.3047 17.8947 22.0216 11.5633 31.9362 7.11258C41.4356 2.84716 53.473 0.474741 67.7098 0.0645097C96.8951 -0.778194 132.128 6.68999 166.91 21.1C169.411 22.1354 171.89 23.1981 174.341 24.2879L170.874 24.2978C169.386 23.6528 167.886 23.0177 166.374 22.3924C95.1109 -7.12442 26.4278 -5.29815 13.2709 26.4651C9.46027 35.6632 10.7181 46.3761 16.1598 57.6748C29.502 85.3975 68.0212 116.637 118.652 137.608C123.55 139.637 128.453 141.525 133.348 143.272C163.05 153.879 192.386 159.254 217.276 158.535C231.33 158.129 243.185 155.799 252.516 151.61C262.097 147.31 268.569 141.228 271.755 133.535C274.629 126.594 274.619 118.789 272.101 110.52L273.176 109.307C276.127 118.421 276.087 126.742 273.05 134.072C269.721 142.106 263.007 148.437 253.09 152.888C243.59 157.153 231.555 159.526 217.318 159.936C215.831 159.978 214.328 160 212.811 160C187.72 160 158.577 154.151 129.256 143.272C125.542 141.896 121.827 140.438 118.116 138.901C83.333 124.493 53.1394 104.864 33.0977 83.6281C25.2169 75.2776 19.2464 67.0384 15.2899 59.0587C14.336 57.1385 13.5007 55.2356 12.7841 53.3501C8.92154 43.1907 8.64971 33.9654 11.9785 25.9288V25.9288Z" fill="url(#paint10_linear_6_545)"/>
<path d="M11.9785 25.9288C15.3047 17.8947 22.0216 11.5633 31.9362 7.11258C41.4356 2.84716 53.473 0.474741 67.7098 0.0645097C96.8951 -0.778194 132.128 6.68999 166.91 21.1C169.411 22.1354 171.89 23.1981 174.341 24.2879L170.874 24.2978C169.386 23.6528 167.886 23.0177 166.374 22.3924C95.1109 -7.12442 26.4278 -5.29815 13.2709 26.4651C9.46027 35.6632 10.7181 46.3761 16.1598 57.6748C29.502 85.3975 68.0212 116.637 118.652 137.608C123.55 139.637 128.453 141.525 133.348 143.272C163.05 153.879 192.386 159.254 217.276 158.535C231.33 158.129 243.185 155.799 252.516 151.61C262.097 147.31 268.569 141.228 271.755 133.535C274.629 126.594 274.619 118.789 272.101 110.52L273.176 109.307C276.127 118.421 276.087 126.742 273.05 134.072C269.721 142.106 263.007 148.437 253.09 152.888C243.59 157.153 231.555 159.526 217.318 159.936C215.831 159.978 214.328 160 212.811 160C187.72 160 158.577 154.151 129.256 143.272C125.542 141.896 121.827 140.438 118.116 138.901C83.333 124.493 53.1394 104.864 33.0977 83.6281C25.2169 75.2776 19.2464 67.0384 15.2899 59.0587C14.336 57.1385 13.5007 55.2356 12.7841 53.3501C8.92154 43.1907 8.64971 33.9654 11.9785 25.9288V25.9288Z" fill="url(#paint11_radial_6_545)"/>
<path d="M11.9785 25.9288C15.3047 17.8947 22.0216 11.5633 31.9362 7.11258C41.4356 2.84716 53.473 0.474741 67.7098 0.0645097C96.8951 -0.778194 132.128 6.68999 166.91 21.1C169.411 22.1354 171.89 23.1981 174.341 24.2879L170.874 24.2978C169.386 23.6528 167.886 23.0177 166.374 22.3924C95.1109 -7.12442 26.4278 -5.29815 13.2709 26.4651C9.46027 35.6632 10.7181 46.3761 16.1598 57.6748C29.502 85.3975 68.0212 116.637 118.652 137.608C123.55 139.637 128.453 141.525 133.348 143.272C163.05 153.879 192.386 159.254 217.276 158.535C231.33 158.129 243.185 155.799 252.516 151.61C262.097 147.31 268.569 141.228 271.755 133.535C274.629 126.594 274.619 118.789 272.101 110.52L273.176 109.307C276.127 118.421 276.087 126.742 273.05 134.072C269.721 142.106 263.007 148.437 253.09 152.888C243.59 157.153 231.555 159.526 217.318 159.936C215.831 159.978 214.328 160 212.811 160C187.72 160 158.577 154.151 129.256 143.272C125.542 141.896 121.827 140.438 118.116 138.901C83.333 124.493 53.1394 104.864 33.0977 83.6281C25.2169 75.2776 19.2464 67.0384 15.2899 59.0587C14.336 57.1385 13.5007 55.2356 12.7841 53.3501C8.92154 43.1907 8.64971 33.9654 11.9785 25.9288V25.9288Z" fill="url(#paint12_radial_6_545)"/>
<path d="M11.9785 25.9288C15.3047 17.8947 22.0216 11.5633 31.9362 7.11258C41.4356 2.84716 53.473 0.474741 67.7098 0.0645097C96.8951 -0.778194 132.128 6.68999 166.91 21.1C169.411 22.1354 171.89 23.1981 174.341 24.2879L170.874 24.2978C169.386 23.6528 167.886 23.0177 166.374 22.3924C95.1109 -7.12442 26.4278 -5.29815 13.2709 26.4651C9.46027 35.6632 10.7181 46.3761 16.1598 57.6748C29.502 85.3975 68.0212 116.637 118.652 137.608C123.55 139.637 128.453 141.525 133.348 143.272C163.05 153.879 192.386 159.254 217.276 158.535C231.33 158.129 243.185 155.799 252.516 151.61C262.097 147.31 268.569 141.228 271.755 133.535C274.629 126.594 274.619 118.789 272.101 110.52L273.176 109.307C276.127 118.421 276.087 126.742 273.05 134.072C269.721 142.106 263.007 148.437 253.09 152.888C243.59 157.153 231.555 159.526 217.318 159.936C215.831 159.978 214.328 160 212.811 160C187.72 160 158.577 154.151 129.256 143.272C125.542 141.896 121.827 140.438 118.116 138.901C83.333 124.493 53.1394 104.864 33.0977 83.6281C25.2169 75.2776 19.2464 67.0384 15.2899 59.0587C14.336 57.1385 13.5007 55.2356 12.7841 53.3501C8.92154 43.1907 8.64971 33.9654 11.9785 25.9288V25.9288Z" fill="url(#paint13_radial_6_545)"/>
<path d="M273.05 25.9288C269.723 17.8947 263.007 11.5633 253.092 7.11258C243.592 2.84716 231.555 0.474741 217.318 0.0645097C188.133 -0.778194 152.901 6.68999 118.118 21.1C115.617 22.1354 113.138 23.1981 110.687 24.2879L114.154 24.2978C115.642 23.6528 117.142 23.0177 118.654 22.3924C189.917 -7.12442 258.6 -5.29815 271.757 26.4651C275.568 35.6632 274.31 46.3761 268.868 57.6748C255.526 85.3975 217.007 116.637 166.376 137.608C161.478 139.637 156.575 141.525 151.68 143.272C121.978 153.879 92.6419 159.254 67.7516 158.535C53.6977 158.129 41.8432 155.799 32.5118 151.61C22.9308 147.31 16.4586 141.228 13.2732 133.535C10.3992 126.594 10.409 118.789 12.9272 110.52L11.8522 109.307C8.90159 118.421 8.94113 126.742 11.9783 134.072C15.307 142.106 22.0214 148.437 31.9385 152.888C41.4379 157.153 53.4728 159.526 67.7096 159.936C69.1973 159.978 70.6998 160 72.2171 160C97.3076 160 126.451 154.151 155.772 143.272C159.486 141.896 163.201 140.438 166.912 138.901C201.695 124.493 231.889 104.864 251.93 83.6281C259.811 75.2776 265.782 67.0384 269.738 59.0587C270.692 57.1385 271.527 55.2356 272.244 53.3501C276.107 43.1907 276.378 33.9654 273.05 25.9288V25.9288Z" fill="url(#paint14_linear_6_545)"/>
<path d="M273.05 25.9288C269.723 17.8947 263.007 11.5633 253.092 7.11258C243.592 2.84716 231.555 0.474741 217.318 0.0645097C188.133 -0.778194 152.901 6.68999 118.118 21.1C115.617 22.1354 113.138 23.1981 110.687 24.2879L114.154 24.2978C115.642 23.6528 117.142 23.0177 118.654 22.3924C189.917 -7.12442 258.6 -5.29815 271.757 26.4651C275.568 35.6632 274.31 46.3761 268.868 57.6748C255.526 85.3975 217.007 116.637 166.376 137.608C161.478 139.637 156.575 141.525 151.68 143.272C121.978 153.879 92.6419 159.254 67.7516 158.535C53.6977 158.129 41.8432 155.799 32.5118 151.61C22.9308 147.31 16.4586 141.228 13.2732 133.535C10.3992 126.594 10.409 118.789 12.9272 110.52L11.8522 109.307C8.90159 118.421 8.94113 126.742 11.9783 134.072C15.307 142.106 22.0214 148.437 31.9385 152.888C41.4379 157.153 53.4728 159.526 67.7096 159.936C69.1973 159.978 70.6998 160 72.2171 160C97.3076 160 126.451 154.151 155.772 143.272C159.486 141.896 163.201 140.438 166.912 138.901C201.695 124.493 231.889 104.864 251.93 83.6281C259.811 75.2776 265.782 67.0384 269.738 59.0587C270.692 57.1385 271.527 55.2356 272.244 53.3501C276.107 43.1907 276.378 33.9654 273.05 25.9288V25.9288Z" fill="url(#paint15_radial_6_545)"/>
<path d="M273.05 25.9288C269.723 17.8947 263.007 11.5633 253.092 7.11258C243.592 2.84716 231.555 0.474741 217.318 0.0645097C188.133 -0.778194 152.901 6.68999 118.118 21.1C115.617 22.1354 113.138 23.1981 110.687 24.2879L114.154 24.2978C115.642 23.6528 117.142 23.0177 118.654 22.3924C189.917 -7.12442 258.6 -5.29815 271.757 26.4651C275.568 35.6632 274.31 46.3761 268.868 57.6748C255.526 85.3975 217.007 116.637 166.376 137.608C161.478 139.637 156.575 141.525 151.68 143.272C121.978 153.879 92.6419 159.254 67.7516 158.535C53.6977 158.129 41.8432 155.799 32.5118 151.61C22.9308 147.31 16.4586 141.228 13.2732 133.535C10.3992 126.594 10.409 118.789 12.9272 110.52L11.8522 109.307C8.90159 118.421 8.94113 126.742 11.9783 134.072C15.307 142.106 22.0214 148.437 31.9385 152.888C41.4379 157.153 53.4728 159.526 67.7096 159.936C69.1973 159.978 70.6998 160 72.2171 160C97.3076 160 126.451 154.151 155.772 143.272C159.486 141.896 163.201 140.438 166.912 138.901C201.695 124.493 231.889 104.864 251.93 83.6281C259.811 75.2776 265.782 67.0384 269.738 59.0587C270.692 57.1385 271.527 55.2356 272.244 53.3501C276.107 43.1907 276.378 33.9654 273.05 25.9288V25.9288Z" fill="url(#paint16_radial_6_545)"/>
</g>
<defs>
<linearGradient id="paint0_linear_6_545" x1="142.467" y1="74.7559" x2="142.467" y2="135.549" gradientUnits="userSpaceOnUse">
<stop stop-color="#D9D9D9"/>
<stop offset="1" stop-color="#D9D9D9" stop-opacity="0"/>
</linearGradient>
<linearGradient id="paint1_linear_6_545" x1="0" y1="80.0002" x2="285.03" y2="80.0002" gradientUnits="userSpaceOnUse">
<stop stop-color="#996DFF"/>
<stop offset="0.5" stop-color="#35E8B3"/>
<stop offset="1" stop-color="#E2D45C"/>
</linearGradient>
<linearGradient id="paint2_linear_6_545" x1="142.514" y1="91.9114" x2="142.514" y2="136.167" gradientUnits="userSpaceOnUse">
<stop stop-color="#28203E"/>
<stop offset="1" stop-color="#121214" stop-opacity="0"/>
</linearGradient>
<linearGradient id="paint3_linear_6_545" x1="28.7903" y1="61.0153" x2="28.7903" y2="78.4551" gradientUnits="userSpaceOnUse">
<stop stop-color="#A9A9AD"/>
<stop offset="1" stop-color="#A9A9AD" stop-opacity="0"/>
</linearGradient>
<linearGradient id="paint4_linear_6_545" x1="61.9988" y1="61.015" x2="61.9988" y2="78.4548" gradientUnits="userSpaceOnUse">
<stop stop-color="#A9A9AD"/>
<stop offset="1" stop-color="#A9A9AD" stop-opacity="0"/>
</linearGradient>
<linearGradient id="paint5_linear_6_545" x1="100.195" y1="61.0151" x2="100.195" y2="78.4549" gradientUnits="userSpaceOnUse">
<stop stop-color="#A9A9AD"/>
<stop offset="1" stop-color="#A9A9AD" stop-opacity="0"/>
</linearGradient>
<linearGradient id="paint6_linear_6_545" x1="140.151" y1="61.0153" x2="140.151" y2="78.4551" gradientUnits="userSpaceOnUse">
<stop stop-color="#A9A9AD"/>
<stop offset="1" stop-color="#A9A9AD" stop-opacity="0"/>
</linearGradient>
<linearGradient id="paint7_linear_6_545" x1="179.36" y1="61.0151" x2="179.36" y2="78.4549" gradientUnits="userSpaceOnUse">
<stop stop-color="#A9A9AD"/>
<stop offset="1" stop-color="#A9A9AD" stop-opacity="0"/>
</linearGradient>
<linearGradient id="paint8_linear_6_545" x1="212.591" y1="61.015" x2="212.591" y2="78.4548" gradientUnits="userSpaceOnUse">
<stop stop-color="#A9A9AD"/>
<stop offset="1" stop-color="#A9A9AD" stop-opacity="0"/>
</linearGradient>
<linearGradient id="paint9_linear_6_545" x1="247.006" y1="61.0154" x2="247.006" y2="78.4552" gradientUnits="userSpaceOnUse">
<stop stop-color="#A9A9AD"/>
<stop offset="1" stop-color="#A9A9AD" stop-opacity="0"/>
</linearGradient>
<linearGradient id="paint10_linear_6_545" x1="258.615" y1="114.544" x2="66.1059" y2="115.532" gradientUnits="userSpaceOnUse">
<stop stop-color="#996DFF"/>
<stop offset="0.5" stop-color="#35E8B3"/>
<stop offset="1" stop-color="#E2D45C"/>
</linearGradient>
<radialGradient id="paint11_radial_6_545" cx="0" cy="0" r="1" gradientUnits="userSpaceOnUse" gradientTransform="translate(140.756 146.212) rotate(15.7613) scale(129.409 214.897)">
<stop stop-color="#171226"/>
<stop offset="1" stop-color="#171226" stop-opacity="0"/>
</radialGradient>
<radialGradient id="paint12_radial_6_545" cx="0" cy="0" r="1" gradientUnits="userSpaceOnUse" gradientTransform="translate(173.937 25.0002) rotate(-157.036) scale(29.1261 48.3666)">
<stop stop-color="#261945"/>
<stop offset="1" stop-color="#261945" stop-opacity="0"/>
</radialGradient>
<radialGradient id="paint13_radial_6_545" cx="0" cy="0" r="1" gradientUnits="userSpaceOnUse" gradientTransform="translate(273.481 107.273) rotate(76.7295) scale(33.0025 54.8026)">
<stop stop-color="#191326"/>
<stop offset="1" stop-color="#191326" stop-opacity="0"/>
</radialGradient>
<linearGradient id="paint14_linear_6_545" x1="149.846" y1="17.7275" x2="192.877" y2="126.818" gradientUnits="userSpaceOnUse">
<stop stop-color="#996DFF"/>
<stop offset="0.5" stop-color="#35E8B3"/>
<stop offset="1" stop-color="#E2D45C"/>
</linearGradient>
<radialGradient id="paint15_radial_6_545" cx="0" cy="0" r="1" gradientUnits="userSpaceOnUse" gradientTransform="translate(108.029 27.4245) rotate(-19.3525) scale(65.8405 109.335)">
<stop stop-color="#171225"/>
<stop offset="1" stop-color="#171225" stop-opacity="0"/>
</radialGradient>
<radialGradient id="paint16_radial_6_545" cx="0" cy="0" r="1" gradientUnits="userSpaceOnUse" gradientTransform="translate(11.9696 108.788) rotate(67.4709) scale(44.289 73.5448)">
<stop stop-color="#191327"/>
<stop offset="1" stop-color="#191327" stop-opacity="0"/>
</radialGradient>
<clipPath id="clip0_6_545">
<rect width="285.03" height="160" fill="white"/>
</clipPath>
</defs>
</svg>
